<svg width="205" height="199" viewBox="0 0 205 199" fill="none" xmlns="http://www.w3.org/2000/svg">
<g clip-path="url(#clip0_26_132)">
<path d="M75.4122 144.476C75.4122 162.567 84.6302 171.612 103.066 171.612C121.502 171.612 130.71 162.567 130.689 144.476V53.3933C130.698 50.1418 131.997 47.0263 134.303 44.73C136.609 42.4338 139.733 41.1442 142.99 41.1443H149.943C153.197 41.1443 156.318 42.4348 158.619 44.7319C160.92 47.0291 162.213 50.1447 162.213 53.3933V143.785C162.213 162.797 157.305 176.742 147.489 185.62C137.673 194.498 122.866 198.948 103.066 198.969C83.2459 198.969 68.4277 194.519 58.6119 185.62C48.796 176.721 43.9092 162.787 43.9511 143.816V53.4247C43.9595 50.1732 45.2592 47.0577 47.5652 44.7614C49.8712 42.4652 52.9953 41.1756 56.2523 41.1756H63.2053C66.4569 41.1839 69.573 42.4771 71.8722 44.7725C74.1714 47.0678 75.4668 50.1786 75.4751 53.4247L75.4122 144.476Z" fill="#3F4898"/>
<path d="M86.8323 54.4926C86.8323 36.4016 77.6143 27.3562 59.1782 27.3562C40.742 27.3562 31.5343 36.4016 31.5553 54.4926V145.732C31.547 148.937 30.2682 152.008 27.9985 154.274C25.7287 156.539 22.6528 157.816 19.4429 157.824H12.1124C8.90254 157.816 5.82657 156.539 3.55684 154.274C1.2871 152.008 0.00830503 148.937 0 145.732V55.1835C0 36.1923 4.91822 22.2472 14.755 13.3483C24.5918 4.44944 39.3997 0 59.1782 0C78.9986 0 93.8166 4.44944 103.632 13.3483C113.448 22.2472 118.356 36.1923 118.356 55.1835V145.732C118.356 148.939 117.08 152.015 114.809 154.283C112.537 156.55 109.456 157.824 106.244 157.824H98.9447C95.7323 157.824 92.6515 156.55 90.38 154.283C88.1084 152.015 86.8323 148.939 86.8323 145.732V54.4926Z" fill="#3F4898"/>
<path d="M173.507 54.4926C173.507 36.4017 164.289 27.3562 145.853 27.3562C127.417 27.3562 118.199 36.4017 118.199 54.4926V145.575C118.199 148.827 116.907 151.946 114.607 154.248C112.307 156.55 109.186 157.847 105.929 157.856H98.9763C97.3609 157.856 95.7613 157.538 94.2689 156.921C92.7764 156.304 91.4203 155.399 90.2781 154.259C89.1358 153.119 88.2296 151.765 87.6114 150.275C86.9932 148.785 86.6751 147.188 86.6751 145.575V55.1836C86.6751 36.1923 91.5936 22.2472 101.43 13.3484C111.267 4.44947 126.075 3.05176e-05 145.853 3.05176e-05C165.632 3.05176e-05 180.439 4.44947 190.276 13.3484C200.113 22.2472 205.031 36.1923 205.031 55.1836V145.544C205.031 148.801 203.735 151.924 201.429 154.227C199.122 156.53 195.993 157.824 192.73 157.824H185.777C182.52 157.816 179.399 156.519 177.099 154.216C174.799 151.914 173.507 148.795 173.507 145.544V54.4926Z" fill="#3F4898"/>
</g>
<defs>
<clipPath id="clip0_26_132">
<rect width="205" height="199" fill="white"/>
</clipPath>
</defs>
</svg>
