<svg width="90" height="91" viewBox="0 0 90 91" fill="none" xmlns="http://www.w3.org/2000/svg">
<rect width="90" height="91" fill="#1E1E1E"/>
<g clip-path="url(#clip0_1_63)">
<rect width="375" height="667" transform="translate(-21 -87)" fill="white"/>
</g>
<ellipse cx="45" cy="45.5" rx="45" ry="45.5" fill="#3F4898"/>
<path d="M44.5 45.5C49.7078 45.5 53.9286 40.9115 53.9286 35.25C53.9286 29.5885 49.7078 25 44.5 25C39.2922 25 35.0714 29.5885 35.0714 35.25C35.0714 40.9115 39.2922 45.5 44.5 45.5ZM51.1 48.0625H49.8699C48.2346 48.8793 46.4152 49.3438 44.5 49.3438C42.5848 49.3438 40.7728 48.8793 39.1301 48.0625H37.9C32.4344 48.0625 28 52.8832 28 58.825V62.1562C28 64.2783 29.5837 66 31.5357 66H57.4643C59.4163 66 61 64.2783 61 62.1562V58.825C61 52.8832 56.5656 48.0625 51.1 48.0625Z" fill="white"/>
<defs>
<clipPath id="clip0_1_63">
<rect width="375" height="667" fill="white" transform="translate(-21 -87)"/>
</clipPath>
</defs>
</svg>
