<svg width="33" height="41" viewBox="0 0 33 41" fill="none" xmlns="http://www.w3.org/2000/svg">
<rect width="33" height="41" fill="#1E1E1E"/>
<g clip-path="url(#clip0_1_63)">
<rect width="375" height="667" transform="translate(-49 -112)" fill="white"/>
</g>
<ellipse cx="17" cy="20.5" rx="45" ry="45.5" fill="#3F4898"/>
<path d="M16.5 20.5C21.7078 20.5 25.9286 15.9115 25.9286 10.25C25.9286 4.58848 21.7078 0 16.5 0C11.2922 0 7.07143 4.58848 7.07143 10.25C7.07143 15.9115 11.2922 20.5 16.5 20.5ZM23.1 23.0625H21.8699C20.2346 23.8793 18.4152 24.3438 16.5 24.3438C14.5848 24.3438 12.7728 23.8793 11.1301 23.0625H9.9C4.43437 23.0625 0 27.8832 0 33.825V37.1562C0 39.2783 1.58371 41 3.53571 41H29.4643C31.4163 41 33 39.2783 33 37.1562V33.825C33 27.8832 28.5656 23.0625 23.1 23.0625Z" fill="white"/>
<defs>
<clipPath id="clip0_1_63">
<rect width="375" height="667" fill="white" transform="translate(-49 -112)"/>
</clipPath>
</defs>
</svg>
