<svg width="62" height="43" viewBox="0 0 62 43" fill="none" xmlns="http://www.w3.org/2000/svg">
<path d="M9.15479 18.3096C12.5211 18.3096 15.258 15.5727 15.258 12.2064C15.258 8.8401 12.5211 6.1032 9.15479 6.1032C5.7885 6.1032 3.0516 8.8401 3.0516 12.2064C3.0516 15.5727 5.7885 18.3096 9.15479 18.3096ZM51.8772 18.3096C55.2435 18.3096 57.9804 15.5727 57.9804 12.2064C57.9804 8.8401 55.2435 6.1032 51.8772 6.1032C48.5109 6.1032 45.774 8.8401 45.774 12.2064C45.774 15.5727 48.5109 18.3096 51.8772 18.3096ZM54.9288 21.3612H48.8256C47.1472 21.3612 45.6309 22.0383 44.5247 23.1349C48.3678 25.2424 51.0952 29.0474 51.6864 33.5676H57.9804C59.6683 33.5676 61.032 32.2039 61.032 30.516V27.4644C61.032 24.0981 58.2951 21.3612 54.9288 21.3612ZM30.516 21.3612C36.4189 21.3612 41.1966 16.5835 41.1966 10.6806C41.1966 4.77766 36.4189 0 30.516 0C24.613 0 19.8354 4.77766 19.8354 10.6806C19.8354 16.5835 24.613 21.3612 30.516 21.3612ZM37.8398 24.4128H37.0483C35.0648 25.3664 32.8619 25.9386 30.516 25.9386C28.1701 25.9386 25.9767 25.3664 23.9837 24.4128H23.1921C17.1271 24.4128 12.2064 29.3335 12.2064 35.3985V38.145C12.2064 40.6721 14.2567 42.7224 16.7838 42.7224H44.2482C46.7753 42.7224 48.8256 40.6721 48.8256 38.145V35.3985C48.8256 29.3335 43.9049 24.4128 37.8398 24.4128ZM16.5072 23.1349C15.401 22.0383 13.8848 21.3612 12.2064 21.3612H6.1032C2.7369 21.3612 0 24.0981 0 27.4644V30.516C0 32.2039 1.36368 33.5676 3.0516 33.5676H9.33598C9.93676 29.0474 12.6641 25.2424 16.5072 23.1349Z" fill="white"/>
</svg>
